<svg xmlns="http://www.w3.org/2000/svg" width="2400" height="2400" viewBox="0 0 2400 2400">
  <!-- Solid indigo background -->
  <rect width="2400" height="2400" fill="#4f46e5"/>
  <!-- FA6 campground icon (576x512 viewBox) scaled and centered in card area -->
  <g transform="translate(900, 780) scale(1.05)">
    <path fill="white" d="M377 52c11-13.8 8.8-33.9-5-45s-33.9-8.8-45 5L288 60.8 249 12c-11-13.8-31.2-16-45-5s-16 31.2-5 45l48 60L12.3 405.4C4.3 415.4 0 427.7 0 440.4L0 464c0 26.5 21.5 48 48 48l240 0 240 0c26.5 0 48-21.5 48-48l0-23.6c0-12.7-4.3-25.1-12.3-35L329 112l48-60zM288 448l-119.5 0L288 291.7 407.5 448 288 448z"/>
  </g>
  <!-- "Camp" text centered -->
  <text x="1200" y="1520" font-family="'Outfit', 'Inter', -apple-system, sans-serif" font-size="160" font-weight="800" fill="white" text-anchor="middle" letter-spacing="-4">Camp</text>
</svg>
